<?xml version="1.0" encoding="utf-8"?>
<!-- Generator: Adobe Illustrator 16.0.0, SVG Export Plug-In . SVG Version: 6.00 Build 0)  -->
<!DOCTYPE svg PUBLIC "-//W3C//DTD SVG 1.1//EN" "http://www.w3.org/Graphics/SVG/1.1/DTD/svg11.dtd">
<svg version="1.1" id="Layer_1" xmlns="http://www.w3.org/2000/svg" xmlns:xlink="http://www.w3.org/1999/xlink" x="0px" y="0px"
	 width="32px" height="32px" viewBox="0 0 32 32" enable-background="new 0 0 32 32" xml:space="preserve">
<g>
	<path d="M16,9c-3.86,0-7,3.14-7,7c0,3.859,3.14,7,7,7c3.859,0,7-3.141,7-7C23,12.14,19.859,9,16,9z M16,21.426
		c-2.992,0-5.426-2.435-5.426-5.426c0-2.992,2.434-5.426,5.426-5.426c2.992,0,5.426,2.434,5.426,5.426
		C21.426,18.991,18.992,21.426,16,21.426z"/>
	<path d="M16.902,12.327c-0.445-0.162-0.978-0.189-1.427-0.08c-1.415,0.313-1.61,1.228-1.61,1.732h0.75c0,0,0.082-0.683,0.86-1.01
		c0.259-0.109,0.859-0.109,1.119,0c0.519,0.245,0.641,0.573,0.641,1.01c0,1.351-1.641,1.228-1.641,2.651
		c0,0.227,0.004,0.896,0.004,0.896h0.777c0,0,0-0.669,0-0.896c0-0.864,1.761-0.905,1.761-2.651
		C18.136,13.42,17.832,12.656,16.902,12.327z"/>
	<path d="M16.001,18.631c-0.328,0-0.595,0.264-0.595,0.59s0.267,0.598,0.595,0.598c0.325,0,0.593-0.271,0.593-0.598
		S16.326,18.631,16.001,18.631z"/>
</g>
</svg>
